<svg width="20" height="20" viewBox="0 0 20 20" fill="none" xmlns="http://www.w3.org/2000/svg">
<g clip-path="url(#clip0)">
<path d="M12.4999 10.8342C12.0391 10.8342 11.6666 11.2075 11.6666 11.6674V15.0008C11.6666 15.46 11.2932 15.8341 10.8332 15.8341H8.33319V3.33423C8.33319 2.62256 7.87986 1.98674 7.19826 1.75007L6.95153 1.66753H10.8332C11.2932 1.66753 11.6666 2.04167 11.6666 2.50095V5.00093C11.6666 5.46082 12.0391 5.8342 12.4999 5.8342C12.9607 5.8342 13.3331 5.46082 13.3331 5.00093V2.50095C13.3331 1.12264 12.2115 0.000976562 10.8332 0.000976562H1.87498C1.84324 0.000976562 1.81669 0.0151671 1.78587 0.0192869C1.74574 0.01593 1.70744 0.000976562 1.6667 0.000976562C0.74752 0.000976562 0 0.748345 0 1.66753V16.6674C0 17.379 0.453334 18.0149 1.13494 18.2515L6.14999 19.9233C6.31997 19.9758 6.48904 20.0008 6.66665 20.0008C7.58583 20.0008 8.33319 19.2533 8.33319 18.3341V17.5008H10.8332C12.2115 17.5008 13.3331 16.3791 13.3331 15.0008V11.6674C13.3331 11.2075 12.9607 10.8342 12.4999 10.8342Z" fill="white"/>
<path d="M19.7555 7.74414L16.4221 4.41089C16.1839 4.17255 15.8255 4.10084 15.5139 4.22993C15.2031 4.35917 14.9997 4.66327 14.9997 5.00003V7.5H11.6664C11.2064 7.5 10.833 7.87323 10.833 8.33328C10.833 8.79333 11.2064 9.16655 11.6664 9.16655H14.9997V11.6665C14.9997 12.0033 15.2031 12.3074 15.5139 12.4366C15.8255 12.5657 16.1839 12.494 16.4221 12.2558L19.7555 8.92241C20.0813 8.59664 20.0813 8.06991 19.7555 7.74414Z" fill="white"/>
</g>
<defs>
<clipPath id="clip0">
<rect width="20" height="20" fill="white"/>
</clipPath>
</defs>
</svg>
