<svg width="96" height="96" viewBox="0 0 96 96" fill="none" xmlns="http://www.w3.org/2000/svg">
<path fill-rule="evenodd" clip-rule="evenodd" d="M60.1075 54.1248C67.063 48.2675 69.9838 44.2174 69.9838 39.6387C69.9838 38.9387 69.9124 38.2387 69.7839 37.5101C68.5127 30.5242 60.5074 27.3955 60.5074 27.3955C60.5074 27.3955 62.607 31.1456 62.6141 34.1957C62.6141 34.26 62.6141 34.3243 62.6141 34.3814C62.4713 39.3101 59.6648 42.4745 56.9154 45.3246C50.317 52.1891 45.3039 54.9034 45.3039 60.6822C45.3039 66.1109 54.5089 70.4324 54.5089 70.4324L59.1863 66.1323C59.1863 66.1323 55.9942 64.2037 55.9942 60.8964C55.9871 59.0464 56.9868 56.7606 60.1075 54.1248ZM59.8433 32.1814C60.7717 41.1316 52.7807 44.0888 43.4972 54.8106C38.0485 61.0822 44.7969 66.0466 44.7969 66.0466L39.6552 70.4324C39.6552 70.4324 31.7357 66.6609 30.7573 60.0107C29.6576 52.5534 38.2698 46.8032 44.3684 41.1245C50.4598 35.4458 52.2023 30.6456 51.9095 27.2098C51.5096 22.6883 48.5745 19.6025 48.5745 19.6025C48.5745 19.6025 58.9078 23.2311 59.8433 32.1814ZM33.6923 46.1603C28.3293 50.989 28.8863 54.0677 28.8863 54.0677C28.8863 54.0677 24.4231 47.6889 27.351 41.6816C30.286 35.6743 40.4979 31.5028 41.2977 26.1098C42.0975 20.7168 39.2339 17.0381 39.2339 17.0381C39.2339 17.0381 48.1746 19.8525 48.7674 28.1313C49.1887 33.9671 41.1549 39.4173 33.6923 46.1603ZM63.9209 74.0325C60.0504 74.0325 56.8726 77.0254 56.5727 80.8255C56.3656 80.8041 56.1513 80.797 55.9371 80.797C55.7229 80.797 55.5086 80.8041 55.3015 80.8184C55.0016 77.0183 51.8166 74.0254 47.9461 74.0254C44.0685 74.0254 40.8906 77.0183 40.5907 80.8184C40.3836 80.797 40.1694 80.7898 39.9551 80.7898C39.748 80.7898 39.5267 80.797 39.3196 80.8113C39.0196 77.0112 35.8418 74.0182 31.9642 74.0182C27.8937 74.0182 24.5873 77.3183 24.5873 81.397C24.5873 85.4685 27.8865 88.7758 31.9642 88.7758C32.1784 88.7758 32.3926 88.7686 32.5997 88.7543C32.8997 92.5544 36.0775 95.5474 39.948 95.5474C43.8257 95.5474 47.0106 92.5616 47.3034 88.7543C47.5105 88.7758 47.7248 88.7829 47.939 88.7829C48.1532 88.7829 48.3675 88.7758 48.5817 88.7615C48.8816 92.5616 52.0594 95.5474 55.9371 95.5474C59.8076 95.5474 62.9855 92.5616 63.2925 88.7543C63.4996 88.7686 63.7138 88.7829 63.9281 88.7829C68.0057 88.7829 71.312 85.4828 71.312 81.4042C71.2978 77.3398 67.9914 74.0325 63.9209 74.0325ZM32.5926 87.5329C32.3855 87.5543 32.1641 87.5615 31.9499 87.5615C28.5578 87.5615 25.8013 84.8114 25.8013 81.4184C25.8013 78.0183 28.5578 75.2682 31.9499 75.2682C35.2205 75.2682 37.8913 77.8183 38.0913 81.0398C35.1134 81.8042 32.8711 84.3828 32.5926 87.5329ZM38.0342 82.3327C37.6842 84.6471 36.0418 86.5471 33.8637 87.2614C34.2065 84.9471 35.849 83.047 38.0342 82.3327ZM46.0751 88.5615C45.8823 91.783 43.2115 94.3331 39.9409 94.3331C36.6773 94.3331 34.0065 91.783 33.8066 88.5686C36.7845 87.7972 39.0268 85.2185 39.2982 82.0756C39.5053 82.047 39.7266 82.0399 39.9409 82.0399C40.1622 82.0399 40.3765 82.0541 40.5836 82.0756C40.8621 85.2114 43.1044 87.79 46.0751 88.5615ZM41.8547 82.3327C44.0327 83.047 45.6681 84.9328 46.018 87.2543C43.8471 86.54 42.2046 84.6471 41.8547 82.3327ZM47.9318 87.5615C47.7176 87.5615 47.5034 87.5472 47.2891 87.5257C47.0106 84.3828 44.7683 81.8113 41.7976 81.0398C41.9904 77.8183 44.6612 75.2682 47.9318 75.2682C51.2025 75.2682 53.8733 77.8112 54.0661 81.0398C51.0882 81.8113 48.8459 84.3899 48.5745 87.5329C48.3674 87.5543 48.1532 87.5615 47.9318 87.5615ZM54.0161 82.3327C53.6662 84.6471 52.0237 86.5471 49.8528 87.2614C50.1956 84.9471 51.8381 83.047 54.0161 82.3327ZM62.0642 88.5615C61.8643 91.783 59.1935 94.3331 55.93 94.3331C52.6593 94.3331 49.9885 91.783 49.7957 88.5615C52.7664 87.79 55.0159 85.2042 55.2872 82.0685C55.4943 82.0399 55.7086 82.0327 55.93 82.0327C56.1442 82.0327 56.3584 82.047 56.5727 82.0685C56.844 85.2114 59.0864 87.79 62.0642 88.5615ZM57.8367 82.3327C60.0076 83.0399 61.65 84.9328 62.0071 87.2543C59.829 86.5471 58.1866 84.6471 57.8367 82.3327ZM63.9209 87.5615C63.7067 87.5615 63.4925 87.5472 63.2782 87.5257C63.0069 84.3828 60.7574 81.8041 57.7867 81.0327C57.9795 77.8112 60.6503 75.2611 63.9209 75.2611C67.313 75.2611 70.0695 78.0112 70.0695 81.4113C70.0695 84.8114 67.313 87.5615 63.9209 87.5615ZM53.7733 10.3379C55.8086 10.6522 57.3296 9.22362 57.751 6.47354C58.1223 4.05919 57.3439 1.97342 55.1087 1.63056C52.9878 1.30912 51.4881 2.8663 51.0954 5.45923C50.7026 8.35217 51.888 10.0522 53.7733 10.3379ZM52.3237 5.65209C52.6379 3.55917 53.6019 2.48772 54.9302 2.69486C56.3013 2.90201 56.844 4.30205 56.5441 6.26639C56.2156 8.4093 55.2515 9.48076 53.9233 9.28076C52.545 9.06647 52.0094 7.67357 52.3237 5.65209ZM35.7847 11.588L37.3558 4.32348L39.1553 10.6451L40.3122 10.3165L38.0342 2.17342L36.763 2.53058L35.192 9.82364L35.1634 9.83078L33.3853 3.4806L32.2141 3.80918L34.4921 11.9523L35.7847 11.588ZM90.6361 54.4534C88.1581 53.9605 86.13 54.732 85.6801 57.0035C85.5444 57.6678 85.5444 58.2892 85.7301 58.825L85.7515 58.875L86.8156 59.0678C86.587 58.5392 86.6513 57.8464 86.7299 57.4464C87.0441 55.8677 88.4509 55.2963 90.4647 55.6963C92.5856 56.1177 93.564 57.2321 93.2712 58.7035C93.1783 59.1821 92.9498 59.8178 92.5856 60.2036L93.6568 60.4607C94.0281 60.0036 94.2209 59.3535 94.3209 58.8464C94.7708 56.5606 93.1783 54.9606 90.6361 54.4534ZM46.2608 9.71648L46.2037 6.01639L46.7107 6.00924L48.7888 9.67363L50.217 9.6522L47.6962 5.32351L50.0956 1.19483L48.7316 1.21626L46.6893 4.93778L46.1894 4.94493L46.1323 1.25911L44.9183 1.28054L45.0468 9.73791L46.2608 9.71648ZM35.0206 2.53772C33.9494 2.83772 33.2781 2.59487 33.0211 1.67341L33.8851 1.38768C34.0351 1.93056 34.3779 2.00913 34.8349 1.88056C35.1777 1.7877 35.5633 1.56627 35.3919 0.959108L36.2774 0.751953L36.2632 0.787671C36.5274 1.72341 36.0489 2.25199 35.0206 2.53772ZM61.6358 5.69494L61.9714 9.71648L62.8783 10.0593L65.8633 7.20928L65.8919 7.22357L63.721 12.9809L64.8564 13.4094L67.8343 5.49494L66.6703 5.05207L62.964 8.53073L62.5498 3.50203L61.3215 3.03774L58.3437 10.9522L59.4791 11.3808L61.6358 5.69494ZM90.1433 39.2959C87.2583 39.7387 85.9658 41.3531 86.23 43.2531C86.5085 45.296 88.3081 46.3532 91.0646 45.9675C93.4783 45.6317 95.2636 44.3031 94.9565 42.0602C94.6566 39.9316 92.7356 38.9387 90.1433 39.2959ZM93.8853 42.1888C94.0781 43.5602 92.8927 44.4817 90.9217 44.7531C88.7722 45.0531 87.4725 44.4317 87.2869 43.096C87.094 41.7174 88.2723 40.803 90.3004 40.5245C92.4071 40.2316 93.7068 40.853 93.8853 42.1888ZM91.0289 47.7961C88.5009 47.6889 86.6156 48.7675 86.5228 51.0747C86.4942 51.7533 86.587 52.3676 86.8513 52.8677L86.8798 52.9105L87.9581 52.9319C87.6511 52.4462 87.6082 51.7533 87.6225 51.339C87.6868 49.7318 88.9936 48.9533 91.0431 49.039C93.2069 49.1318 94.3424 50.0747 94.2781 51.5748C94.2567 52.0605 94.1353 52.7248 93.8282 53.1605L94.9279 53.2534C95.2207 52.7462 95.3136 52.0748 95.335 51.5533C95.4278 49.239 93.614 47.9032 91.0289 47.7961ZM28.8149 14.6595L27.6152 15.2666L23.7875 7.73072L24.873 7.1807L27.858 13.0594L27.8865 13.0451L28.0008 5.5878L29.1791 4.98779L33.0139 12.5237L31.9142 13.0809L28.9363 7.21642L28.8149 14.6595ZM84.6161 35.6958L87.3512 34.8029L87.7653 36.0672C88.1224 37.1601 89.5292 37.7244 91.1003 37.2172C92.4571 36.7744 93.5211 35.6458 93.0926 34.3314L92.2857 31.9171L84.2447 34.5457L84.6161 35.6958ZM91.6359 33.4028L91.9429 34.3386C92.2143 35.16 91.5073 35.7743 90.7146 36.0315C89.9577 36.2743 89.0007 36.2672 88.7151 35.3958L88.408 34.46L91.6359 33.4028ZM80.9098 28.0027L81.5382 29.0456L87.8439 25.2383L88.8222 26.8598L89.7506 26.2955L87.1726 22.024L86.2371 22.5883L87.2083 24.2026L80.9098 28.0027ZM9.04099 50.9676L2.96384 51.0105L6.5987 49.2533L6.59155 48.2818L2.85673 46.5246V46.496L9.00527 46.4532L8.99814 45.2389L0.542969 45.3032L0.550117 46.5532L5.12047 48.7604L0.578688 50.9533L0.585836 52.2605L9.04099 52.1962V50.9676ZM21.738 14.9881L25.5871 16.7095L26.7225 15.8452L22.1308 13.8523L21.6166 9.10218L20.5311 9.93078L21.0882 14.138L20.6954 14.438L18.4602 11.5022L17.4961 12.238L22.6164 18.9667L23.5876 18.231L21.3452 15.2881L21.738 14.9881ZM9.37662 21.0311L12.9543 27.5741L12.9329 27.6027L7.44135 23.9526L6.77008 24.9669L13.8184 29.6385L14.5611 28.517L10.9977 21.9954L16.4964 25.6026L17.1605 24.5955L10.1122 19.9239L9.37662 21.0311ZM19.8884 20.3025C20.1741 20.0025 20.5954 19.4596 20.6882 18.8882L21.4809 19.6168L21.4738 19.6667C21.3452 20.2168 21.0024 20.7382 20.5383 21.2311C18.9386 22.9026 16.8106 22.4668 14.9896 20.7168C13.1186 18.9239 12.633 16.7238 14.2469 15.0452C14.604 14.6738 15.1181 14.2237 15.6751 14.0452L16.4392 14.8381C15.9179 14.9666 15.3895 15.3809 15.0538 15.7381C14.0184 16.8238 14.2398 18.281 15.8037 19.781C17.289 21.1954 18.7816 21.4668 19.8884 20.3025ZM81.5525 68.1752L85.2088 74.6468L79.6815 71.0896L79.0102 72.1325L86.1229 76.704L86.837 75.5968L83.1664 69.1038L83.1807 69.0752L88.7294 72.6468L89.3864 71.6253L82.2738 67.0537L81.5525 68.1752ZM74.7898 9.57362L75.9038 10.2879L71.3549 17.4167L70.3123 16.7524L73.8472 11.2094L67.3844 14.8809L66.2561 14.1595L70.805 7.0307L71.8262 7.68786L68.277 13.2452L68.3056 13.2666L74.7898 9.57362ZM80.2171 24.9383L79.3744 25.6312L76.7108 22.4025L83.2307 17.0167L85.8658 20.2096L85.0303 20.9025L83.1664 18.6453L81.1455 20.3168L82.5094 21.974L81.7096 22.6311L80.3456 20.9739L78.3247 22.6454L80.2171 24.9383ZM80.8884 16.0667L81.6239 15.2595L77.9391 11.9023L77.2035 12.7094L78.5961 13.9737L73.6329 19.4168L74.5327 20.2382L79.4959 14.7952L80.8884 16.0667ZM11.2762 35.4029L10.7691 36.6458L2.94242 33.4385L3.40659 32.3171L9.50516 34.8172L9.51943 34.7886L4.73486 29.067L5.23473 27.8455L13.0615 31.0528L12.5902 32.1957L6.50586 29.7027L11.2762 35.4029ZM9.47659 42.4531L2.24972 41.003L2.86385 37.9244L10.0907 39.3744L10.3264 38.1958L2.03549 36.5315L0.942895 41.9817L9.23379 43.6388L9.47659 42.4531ZM10.0622 69.5038C8.02694 70.8467 6.99861 72.8182 8.24118 74.7111C9.41947 76.504 11.5832 76.5754 13.7684 75.1326C16.1822 73.4896 16.6463 71.4753 15.5966 69.8753C14.4611 68.1466 12.3831 67.9752 10.0622 69.5038ZM13.09 74.0897C11.3262 75.254 9.88364 75.254 9.14095 74.1325C8.37685 72.9753 9.04813 71.6324 10.712 70.5396C12.5187 69.3467 13.9613 69.3467 14.7039 70.4681C15.468 71.6324 14.7968 72.9611 13.09 74.0897ZM8.06265 22.174C7.44851 23.1026 6.78438 23.3526 5.98456 22.824L6.44874 22.0454C6.91291 22.3525 7.22711 22.1954 7.48419 21.7954C7.68415 21.4954 7.82699 21.0882 7.29854 20.7382L7.83413 20.0025L7.8484 20.0382C8.6625 20.5739 8.64823 21.2811 8.06265 22.174ZM10.2193 58.3535L3.06383 56.3249L9.49801 54.9606L9.24094 53.7463L0.971444 55.5034L1.24281 56.7963L8.41256 58.825L8.41971 58.8535L1.96408 60.225L2.22115 61.4107L10.4906 59.6536L10.2193 58.3535ZM84.7232 61.2465L85.2159 59.9964L93.0855 63.0894L92.6427 64.2179L86.5014 61.8036L86.4871 61.8322L91.3502 67.4823L90.8646 68.7109L82.995 65.618L83.4449 64.468L89.5649 66.8752L84.7232 61.2465ZM12.4473 67.118C11.9903 66.0252 9.91935 66.618 7.16286 67.7752L4.99193 68.6895L3.21378 64.4608L11.0119 61.1893L11.4761 62.2965L4.68486 65.1466L5.54894 67.2038L6.78437 66.6823C10.7834 65.0037 12.633 64.6965 13.4685 66.6823L12.4473 67.118Z" fill="#01499B"/>
</svg>
