<svg width="85" height="98" viewBox="0 0 85 98" fill="none" xmlns="http://www.w3.org/2000/svg">
<path fill-rule="evenodd" clip-rule="evenodd" d="M10.5484 60.4044L6.50231 56.5425L10.2758 52.1058H8.19741L4.40186 56.572L4.21023 56.5941V52.1058H0.377838C0.333618 52.1058 0.296765 52.1205 0.259915 52.1573C0.200955 52.2163 0.193585 52.3195 0.259915 52.3858C0.267285 52.3932 0.282031 52.4006 0.289401 52.4079C0.672642 52.747 0.982183 53.1744 1.18854 53.6535V61.8415H4.21023V57.8691L8.39641 61.8415H10.5558C11.4697 61.8415 11.2117 61.0677 10.5484 60.4044ZM16.3118 51.9805C19.4514 51.9805 21.9941 54.2136 21.9941 56.97C21.9941 59.7263 19.4514 61.9595 16.3118 61.9595C13.1722 61.9595 10.6295 59.7263 10.6295 56.97C10.6295 54.2136 13.1722 51.9805 16.3118 51.9805ZM16.3118 60.2422C17.7784 60.2422 18.9724 58.783 18.9724 56.9773C18.9724 55.1717 17.7784 53.7124 16.3118 53.7124C14.8452 53.7124 13.6512 55.1717 13.6512 56.9773C13.6512 58.7756 14.8452 60.2422 16.3118 60.2422ZM44.3031 52.1058H39.8295C39.7853 52.1058 39.7484 52.1205 39.7116 52.1573C39.6526 52.2163 39.6452 52.3195 39.7116 52.3858C39.7189 52.3932 39.7337 52.4006 39.7411 52.4079C40.0211 52.6585 40.2569 52.9459 40.4412 53.2702L36.7267 61.8489H37.729C38.8051 61.8489 39.0851 61.2077 39.3136 60.6771L39.7705 59.6232H44.3547L45.3349 61.8563H46.9121C47.7965 61.8563 48.3566 61.3404 47.8849 60.2717L44.3031 52.1058ZM40.4633 58.0312L42.0479 54.3683L43.6619 58.0312H40.4633ZM83.9021 60.257L80.3056 52.0984H75.832C75.7877 52.0984 75.7509 52.1131 75.7141 52.15C75.6551 52.2089 75.6477 52.3121 75.7141 52.3785C75.7214 52.3858 75.7362 52.3932 75.7435 52.4006C76.0236 52.6511 76.2594 52.9386 76.4511 53.2628L72.7366 61.8415H73.7389C74.8149 61.8415 75.095 61.2004 75.3234 60.6697L75.7804 59.6084H80.3645L81.3521 61.8415H82.9293C83.8137 61.8415 84.3664 61.3256 83.9021 60.257ZM76.4658 58.0312L78.0503 54.3683L79.6644 58.0312H76.4658ZM56.2056 56.1814V52.1058H59.22V61.8489H56.2056V57.7733H52.2553V61.8489H49.2336V53.6608C49.0273 53.1818 48.7177 52.7543 48.3345 52.4153C48.3271 52.4079 48.3124 52.4006 48.305 52.3932C48.246 52.3269 48.246 52.2237 48.305 52.1647C48.3345 52.1352 48.3787 52.1131 48.4229 52.1131H52.2553V56.1887H56.2056V56.1814ZM70.872 52.1058H61.77C61.7258 52.1058 61.6889 52.1205 61.6521 52.1573C61.5931 52.2163 61.5857 52.3195 61.6521 52.3858C61.6594 52.3932 61.6742 52.4006 61.6816 52.4079C62.0648 52.747 62.3743 53.1744 62.5807 53.6535V57.8839C62.5807 59.1957 61.6078 60.257 60.3033 60.257V63.2345H62.4849L62.6691 61.8415H69.8844L70.0686 63.2345H72.2502V60.257H70.872V52.1058ZM67.8576 60.257H63.9368C64.4011 59.5716 64.6664 58.7535 64.6664 57.8839H64.6811V53.6829H67.865V60.257H67.8576ZM32.4595 52.1058L29.6884 59.2104L26.8583 52.1058H22.2889C22.2447 52.1058 22.2078 52.1205 22.171 52.1573C22.112 52.2163 22.1046 52.3195 22.171 52.3858C22.1783 52.3932 22.1931 52.4006 22.2004 52.4079C22.5837 52.747 22.8932 53.1744 23.0996 53.6535V61.3993V61.8489H24.0577C24.7947 61.8489 25.1853 61.2298 25.1853 60.7508V55.2085L27.8606 61.8489H29.5631C30.278 61.8489 30.8233 61.5983 31.1255 60.8245L32.9533 55.8571V61.8489H34.8842C35.7244 61.8489 35.975 61.2446 35.975 60.5076V52.1058H32.4595Z" fill="#01499B"/>
<path fill-rule="evenodd" clip-rule="evenodd" d="M72.1244 64.93L68.1962 71.3272V64.93H64.3638C64.3196 64.93 64.2827 64.9447 64.2459 64.9816C64.1869 65.0405 64.1796 65.1437 64.2459 65.2101C64.2533 65.2174 64.268 65.2248 64.2753 65.2322C64.6586 65.5712 64.9682 65.9986 65.1745 66.4777V74.6658H68.2183L72.1392 68.2686V74.6658H75.1609V64.9226H72.1244V64.93ZM15.5891 64.93H8.30753C8.26331 64.93 8.22645 64.9447 8.1896 64.9816C8.13064 65.0405 8.12327 65.1437 8.1896 65.2101C8.19697 65.2174 8.2117 65.2248 8.21907 65.2322C8.60231 65.5712 8.91185 65.9986 9.11821 66.4777V74.6658H11.0492C11.8894 74.6658 12.1399 74.0614 12.1399 73.3244V71.5114H15.5891C17.4021 71.5114 18.8687 70.0374 18.8687 68.217C18.8687 66.404 17.4021 64.93 15.5891 64.93ZM14.093 69.9269H12.1399V66.5145H14.093C15.029 66.5145 15.7881 67.281 15.7881 68.217C15.7881 69.1604 15.029 69.9269 14.093 69.9269ZM37.3896 66.5293C38.2666 66.4113 39.5564 66.6767 40.7798 67.4653L41.6421 66.1755C40.0944 65.1585 38.6204 64.8047 37.139 64.8047C34.191 64.8047 31.4567 67.0378 31.4567 69.7942C31.4567 72.5506 34.1836 74.7837 37.139 74.7837C38.6204 74.7837 40.0944 74.4299 41.6421 73.4129L41.4136 73.0738C41.023 72.4769 40.3744 72.4621 39.689 72.6832C39.5858 72.7274 39.4826 72.7643 39.3795 72.8012C38.6351 73.0517 37.935 73.1254 37.3896 73.0591C35.665 72.8233 34.4784 71.5999 34.4784 69.7942C34.4784 67.9959 35.665 66.7651 37.3896 66.5293ZM47.6928 66.5293C48.5699 66.4113 49.8596 66.6767 51.0831 67.4653L51.9453 66.1755C50.3976 65.1585 48.9236 64.8047 47.4422 64.8047C44.4942 64.8047 41.76 67.0378 41.76 69.7942C41.76 72.5506 44.4869 74.7837 47.4422 74.7837C48.9236 74.7837 50.3976 74.4299 51.9453 73.4129L51.7169 73.0738C51.3263 72.4769 50.6777 72.4621 49.9923 72.6832C49.8891 72.7274 49.7859 72.7643 49.6827 72.8012C48.9384 73.0517 48.2382 73.1254 47.6928 73.0591C45.9682 72.8233 44.7817 71.5999 44.7817 69.7942C44.7817 67.9959 45.9682 66.7651 47.6928 66.5293ZM25.0522 64.8047C21.9126 64.8047 19.3699 67.0378 19.3699 69.7942C19.3699 72.5506 21.9126 74.7837 25.0522 74.7837C28.1918 74.7837 30.7345 72.5506 30.7345 69.7942C30.7345 67.0378 28.1918 64.8047 25.0522 64.8047ZM25.0522 73.0665C23.5856 73.0665 22.3916 71.6072 22.3916 69.8016C22.3916 67.9959 23.5856 66.5366 25.0522 66.5366C26.5188 66.5366 27.7127 67.9959 27.7127 69.8016C27.7127 71.5998 26.5188 73.0665 25.0522 73.0665ZM56.2347 71.3272V64.93H52.4023C52.3581 64.93 52.3212 64.9447 52.2844 64.9816C52.2254 65.0405 52.218 65.1437 52.2844 65.2101C52.2917 65.2174 52.3065 65.2248 52.3138 65.2322C52.6971 65.5712 53.0066 65.9986 53.213 66.4777V74.6658H56.2568L60.1776 68.2686V74.6658H63.1994V64.9226H60.1555L56.2347 71.3272Z" fill="#01499B"/>
<path fill-rule="evenodd" clip-rule="evenodd" d="M40.4198 32.0452C38.6363 33.4676 37.8993 35.7892 37.9214 37.9043C37.9361 39.9753 38.8426 42.0242 40.4198 43.6014L41.5695 44.7511L42.5645 45.746L42.6087 45.7903C42.6898 45.864 42.7929 45.9082 42.9035 45.9082C43.1393 45.9082 43.331 45.7313 43.3531 45.4955C43.3531 45.4881 43.3531 45.4881 43.3531 45.4881C43.3604 45.4733 43.3605 45.4586 43.3605 45.4512C43.3605 45.4218 43.3531 45.3923 43.3531 45.3628C43.3531 45.3628 43.3457 45.3628 43.3531 45.3554C43.3015 44.5005 43.3605 43.6456 43.5226 42.8054C43.8837 40.9776 44.7755 39.2383 46.1832 37.8159C46.5738 37.4253 46.9939 37.0715 47.4287 36.762C47.4287 36.762 55.1524 30.6007 57.6877 28.5739C61.1959 25.7733 60.8642 20.2311 57.7025 17.0325L55.5283 14.8436C55.4473 14.7625 55.3293 14.7109 55.2114 14.7109C54.9682 14.7109 54.7766 14.9026 54.7619 15.1531C54.7692 15.19 54.7692 15.2195 54.7692 15.2563C54.9609 18.4549 54.4744 20.2384 51.9318 22.7885C51.5411 23.1865 51.121 23.5402 50.6862 23.8424V23.8498C50.6715 23.8645 43.0288 29.9669 40.4198 32.0452Z" fill="#01499B"/>
<path fill-rule="evenodd" clip-rule="evenodd" d="M33.5136 25.1101C31.73 26.5325 30.993 28.854 31.0151 30.9692C31.0299 33.0402 31.9364 35.0891 33.5136 36.6663L34.6633 37.816L35.6582 38.8109L35.7024 38.8552C35.7761 38.9289 35.8867 38.9731 35.9972 38.9731C36.2331 38.9731 36.4247 38.7962 36.4468 38.5604C36.4468 38.553 36.4468 38.553 36.4468 38.553C36.4542 38.5456 36.4542 38.5309 36.4542 38.5235C36.4542 38.494 36.4468 38.4645 36.4468 38.4351C36.4468 38.4351 36.4395 38.4351 36.4468 38.4277C36.3952 37.5728 36.4542 36.7178 36.6163 35.8777C36.9774 34.0499 37.8692 32.3106 39.2769 30.8882C39.6675 30.4976 40.0876 30.1438 40.5224 29.8343C40.5224 29.8343 48.2462 23.6729 50.7815 21.6462C54.2896 18.8456 53.958 13.3033 50.7962 10.1048L48.6221 7.91587C48.541 7.8348 48.4231 7.7832 48.3052 7.7832C48.062 7.7832 47.8703 7.97483 47.8556 8.22541C47.863 8.26226 47.863 8.29174 47.863 8.32859C48.0546 11.5272 47.5682 13.3107 45.0255 15.8607C44.6349 16.2587 44.2148 16.6125 43.78 16.9147V16.922C43.7652 16.9294 36.1225 23.0318 33.5136 25.1101Z" fill="#01499B"/>
<path fill-rule="evenodd" clip-rule="evenodd" d="M26.6151 18.1741C24.8316 19.5965 24.0946 21.9181 24.1167 24.0333C24.1314 26.1042 25.038 28.1531 26.6151 29.7303L27.7649 30.88L28.7598 31.8749L28.804 31.9192C28.8851 31.9929 28.9883 32.0297 29.0988 32.0297C29.3273 32.0297 29.5263 31.8528 29.5484 31.617C29.5484 31.6096 29.5484 31.6096 29.5484 31.6096C29.5558 31.6023 29.5558 31.5875 29.5558 31.5802C29.5558 31.5507 29.5484 31.5212 29.5484 31.4917C29.5484 31.4917 29.541 31.4917 29.5484 31.4843C29.4968 30.6294 29.5558 29.7745 29.7179 28.9343C30.079 27.1066 30.9708 25.3672 32.3785 23.9448C32.7691 23.5542 33.1892 23.2004 33.624 22.8909C33.624 22.8909 41.3478 16.7296 43.8831 14.7028C47.3912 11.9022 47.0595 6.35999 43.8978 3.1614L41.7237 0.97251C41.6426 0.89144 41.5246 0.839844 41.4067 0.839844C41.1635 0.839844 40.9719 1.03147 40.9572 1.28205C40.9645 1.3189 40.9645 1.34838 40.9645 1.38523C41.1562 4.58381 40.6697 6.36735 38.1271 8.91738C37.7365 9.31536 37.3164 9.66911 36.8816 9.97128V9.97866C36.8668 9.98603 29.2241 16.0884 26.6151 18.1741Z" fill="#01499B"/>
<path fill-rule="evenodd" clip-rule="evenodd" d="M48.4394 86.9367C50.8641 86.9367 52.8761 88.7276 53.2225 91.0713C53.5394 91.1745 53.8785 91.2482 54.2175 91.285C53.9596 88.3075 51.4685 85.9639 48.4394 85.9639C48.2699 85.9639 48.1004 85.9712 47.9383 85.986C47.953 86.1407 47.9604 86.2955 47.9604 86.4503C47.9604 86.6198 47.953 86.7893 47.9383 86.9588C48.1004 86.9367 48.2699 86.9367 48.4394 86.9367ZM53.2668 92.0957C53.5837 92.1768 53.8932 92.2357 54.2322 92.2652C53.989 95.2722 51.4906 97.6306 48.4394 97.6306C45.2335 97.6306 42.6318 95.0216 42.6318 91.7935C42.6318 89.074 44.4744 86.7967 46.9802 86.1481C46.9802 86.2439 46.9875 86.3471 46.9875 86.4503C46.9875 86.6935 46.9654 86.9367 46.9359 87.1799C44.9976 87.8137 43.6047 89.6415 43.6047 91.8009C43.6047 94.4836 45.7715 96.6651 48.4394 96.6651C51.0115 96.6577 53.112 94.6384 53.2668 92.0957Z" fill="#01499B"/>
<path fill-rule="evenodd" clip-rule="evenodd" d="M60.5334 86.4499C60.5334 89.6706 57.9318 92.2796 54.7259 92.2796C51.6894 92.2796 49.2057 89.9433 48.9404 86.9584C49.2868 86.9953 49.6185 87.069 49.9427 87.1722C50.2891 89.5084 52.3012 91.2994 54.7259 91.2994C57.3938 91.2994 59.5679 89.1252 59.5679 86.4425C59.5679 83.7525 57.4012 81.5783 54.7259 81.5783C52.1538 81.5783 50.0533 83.5977 49.8985 86.1404C49.589 86.0593 49.2721 86.0003 48.9404 85.9708C49.1763 82.9639 51.6747 80.6055 54.7259 80.6055C57.9392 80.6128 60.5334 83.2218 60.5334 86.4499Z" fill="#01499B"/>
<path fill-rule="evenodd" clip-rule="evenodd" d="M35.371 86.4513C35.371 83.2232 32.7694 80.6143 29.5634 80.6143C26.3575 80.6143 23.7559 83.2232 23.7559 86.4513C23.7559 89.672 26.3575 92.281 29.5634 92.281C29.7329 92.281 29.9024 92.2736 30.0646 92.2589C30.0572 92.1041 30.0499 91.9493 30.0499 91.7872C30.0499 91.6177 30.0572 91.4482 30.072 91.2713C29.9098 91.286 29.7329 91.2934 29.5634 91.2934C26.8955 91.2934 24.7287 89.1192 24.7287 86.4366C24.7287 83.7465 26.8955 81.5723 29.5634 81.5723C32.2387 81.5723 34.4055 83.7465 34.4055 86.4366C34.4055 88.5886 33.0052 90.4237 31.0743 91.0575C31.0374 91.2934 31.0153 91.5366 31.0153 91.7798C31.0153 91.883 31.0227 91.9862 31.0227 92.082C33.5285 91.4482 35.371 89.1635 35.371 86.4513Z" fill="#01499B"/>
<path fill-rule="evenodd" clip-rule="evenodd" d="M42.1454 80.6133C39.0942 80.6133 36.5884 82.9791 36.3525 85.9786C36.6842 86.0081 37.0011 86.0597 37.3106 86.1482C37.4654 83.6055 39.5659 81.5861 42.138 81.5861C44.8133 81.5861 46.9727 83.7603 46.9727 86.4503C46.9727 88.6024 45.5724 90.4375 43.6415 91.0713C43.6046 91.3072 43.5899 91.5504 43.5899 91.7936C43.5899 91.8894 43.5899 91.9999 43.5972 92.0957C46.0957 91.4398 47.9456 89.1625 47.9456 86.4503C47.9603 83.2223 45.3513 80.6133 42.1454 80.6133ZM42.1454 91.3072C42.3149 91.3072 42.4844 91.2998 42.6539 91.2851C42.6391 91.4546 42.6318 91.6241 42.6318 91.7936C42.6318 91.9557 42.6391 92.1031 42.6539 92.2579C42.4844 92.2726 42.3149 92.28 42.1527 92.28C39.1237 92.28 36.6252 89.9437 36.3673 86.9588C36.7137 86.9957 37.0453 87.0694 37.3696 87.1726C37.7086 89.5089 39.7206 91.3072 42.1454 91.3072Z" fill="#01499B"/>
<path fill-rule="evenodd" clip-rule="evenodd" d="M35.3503 86.9588C35.365 86.7893 35.3724 86.6198 35.3724 86.4503C35.3724 86.2955 35.365 86.1407 35.3576 85.986C35.5198 85.9712 35.6893 85.9639 35.8588 85.9639C38.8952 85.9639 41.3863 88.3002 41.6442 91.285C41.2979 91.2482 40.9662 91.1745 40.6419 91.0713C40.2955 88.7276 38.2835 86.9367 35.8588 86.9367C35.6893 86.9367 35.5198 86.9367 35.3503 86.9588ZM41.6442 92.2652C41.3126 92.2357 40.9957 92.1768 40.6862 92.0957C40.5314 94.6384 38.4309 96.6577 35.8588 96.6577C33.1908 96.6577 31.0241 94.4762 31.0241 91.7935C31.0241 89.6415 32.4244 87.8064 34.3627 87.1725C34.3995 86.9367 34.4143 86.6861 34.4143 86.4429C34.4143 86.3397 34.4143 86.2439 34.4069 86.1407C31.9085 86.7893 30.0586 89.074 30.0586 91.7862C30.0586 95.0142 32.6528 97.6232 35.8588 97.6232C38.91 97.6306 41.4158 95.2722 41.6442 92.2652Z" fill="#01499B"/>
</svg>
