<svg width="1025" height="425" viewBox="0 0 1025 425" fill="none" xmlns="http://www.w3.org/2000/svg">
<mask id="mask0" mask-type="alpha" maskUnits="userSpaceOnUse" x="0" y="0" width="1025" height="425">
<rect width="1025" height="425" fill="white"/>
</mask>
<g mask="url(#mask0)">
<path d="M269.289 -10C267.581 -8.57548 265.873 -7.16121 264.165 -5.75719C181.826 61.5878 80.371 101.294 -25.8061 107.728L-27.9121 107.856L28.4537 164.222L54.0745 97.6074L115.564 143.725L136.061 71.9866L202.675 118.104L207.799 36.1175L269.289 66.8624V-10Z" fill="#01499B"/>
<path d="M233.419 169.345C239.079 169.345 243.668 164.757 243.668 159.097C243.668 153.437 239.079 148.849 233.419 148.849C227.759 148.849 223.171 153.437 223.171 159.097C223.171 164.757 227.759 169.345 233.419 169.345Z" fill="#FBCC34"/>
<path d="M38.7015 36.1177C44.3614 36.1177 48.9498 31.5294 48.9498 25.8694C48.9498 20.2094 44.3614 15.6211 38.7015 15.6211C33.0415 15.6211 28.4531 20.2094 28.4531 25.8694C28.4531 31.5294 33.0415 36.1177 38.7015 36.1177Z" fill="#ED1C24"/>
<path d="M177.054 5.37207H187.302V20.7446H177.054V5.37207Z" fill="#FF1D25"/>
<path d="M106.816 1.749L117.063 -8.49805L124.31 -1.2512L114.063 8.99584L106.816 1.749Z" fill="#06AAE9"/>
<path d="M60.7021 68.3603L70.9492 58.1133L78.196 65.3601L67.949 75.6072L60.7021 68.3603Z" fill="#7AC943"/>
<path d="M240.049 85.8601L247.296 78.6133L257.543 88.8603L250.296 96.1072L240.049 85.8601Z" fill="#7AC943"/>
<path d="M151.433 128.353H161.681V143.725H151.433V128.353Z" fill="#FF1D25"/>
<path d="M178.559 191.335L188.806 181.088L196.052 188.335L185.805 198.582L178.559 191.335Z" fill="#7AC943"/>
<path d="M60.7021 162.72L67.949 155.473L78.196 165.72L70.9492 172.967L60.7021 162.72Z" fill="#06AAE9"/>
<path d="M726 0C727.829 1.13756 729.664 2.27 731.508 3.38195C818.849 56.6931 921.149 80.1797 1023 70.3035L1025 70.1037L982.295 133.228L946.426 71.7383L895.184 128.104L869.564 61.49L808.074 112.732L792.701 35.8691L736.335 76.8624L726.005 0" fill="#F5483A"/>
</g>
<path d="M751.708 122.98C757.368 122.98 761.957 118.392 761.957 112.732C761.957 107.072 757.368 102.483 751.708 102.483C746.048 102.483 741.46 107.072 741.46 112.732C741.46 118.392 746.048 122.98 751.708 122.98Z" fill="#06AAE9"/>
<path d="M849.067 107.607H859.316V122.98H849.067V107.607Z" fill="#7AC943"/>
<path d="M768.557 80.4871L775.803 73.2402L786.051 83.4873L778.804 90.7341L768.557 80.4871Z" fill="#06AAE9"/>
<path d="M773.686 129.604L783.933 119.357L791.179 126.604L780.932 136.851L773.686 129.604Z" fill="#FF1D25"/>
<path d="M932.558 124.478L942.805 114.23L950.052 121.477L939.804 131.724L932.558 124.478Z" fill="#06AAE9"/>
</svg>
